<?xml version="1.0" encoding="UTF-8" standalone="no"?>
<!-- Created with Inkscape (http://www.inkscape.org/) -->

<svg
   xmlns:osb="http://www.openswatchbook.org/uri/2009/osb"
   xmlns:dc="http://purl.org/dc/elements/1.1/"
   xmlns:cc="http://creativecommons.org/ns#"
   xmlns:rdf="http://www.w3.org/1999/02/22-rdf-syntax-ns#"
   xmlns:svg="http://www.w3.org/2000/svg"
   xmlns="http://www.w3.org/2000/svg"
   xmlns:xlink="http://www.w3.org/1999/xlink"
   xmlns:sodipodi="http://sodipodi.sourceforge.net/DTD/sodipodi-0.dtd"
   xmlns:inkscape="http://www.inkscape.org/namespaces/inkscape"
   width="640px"
   height="480px"
   id="svg3023"
   version="1.1"
   inkscape:version="0.48.5 r10040"
   sodipodi:docname="joy.svg"
   inkscape:export-filename="/media/daten/shared/sourcen/Tanglu/Bartholomea/Tanglu_d-i_screen2.png"
   inkscape:export-xdpi="90"
   inkscape:export-ydpi="90">
  <sodipodi:namedview
     id="base"
     pagecolor="#ffffff"
     bordercolor="#666666"
     borderopacity="1.0"
     inkscape:pageopacity="0.0"
     inkscape:pageshadow="2"
     inkscape:zoom="1.2271249"
     inkscape:cx="171.33253"
     inkscape:cy="240"
     inkscape:current-layer="layer7"
     inkscape:document-units="px"
     showgrid="false"
     inkscape:snap-grids="false"
     inkscape:window-width="1916"
     inkscape:window-height="1007"
     inkscape:window-x="0"
     inkscape:window-y="16"
     inkscape:window-maximized="0"
     showborder="true"
     inkscape:showpageshadow="false"
     inkscape:snap-global="false"
     showguides="true"
     inkscape:guide-bbox="true">
    <inkscape:grid
       empspacing="1"
       visible="true"
       enabled="true"
       snapvisiblegridlinesonly="true"
       spacingx="1px"
       spacingy="1px"
       type="xygrid"
       id="grid4258" />
  </sodipodi:namedview>
  <defs
     id="defs3025">
    <linearGradient
       id="linearGradient5990"
       osb:paint="solid">
      <stop
         style="stop-color:#ffffff;stop-opacity:1;"
         offset="0"
         id="stop5992" />
    </linearGradient>
    <filter
       id="filter3098"
       y="-0.15"
       height="1.3"
       x="-0.15"
       width="1.3"
       inkscape:menu-tooltip="Aquarelle paper effect which can be used for pictures as for objects"
       inkscape:menu="Textures"
       inkscape:label="Rough paper"
       color-interpolation-filters="sRGB">
      <feTurbulence
         id="feTurbulence3100"
         type="fractalNoise"
         baseFrequency="0.04"
         numOctaves="5"
         seed="0"
         result="result4" />
      <feDisplacementMap
         id="feDisplacementMap3102"
         in2="result4"
         in="SourceGraphic"
         yChannelSelector="G"
         xChannelSelector="R"
         scale="10"
         result="result3" />
      <feDiffuseLighting
         id="feDiffuseLighting3104"
         lighting-color="rgb(233,230,215)"
         diffuseConstant="1"
         surfaceScale="2"
         result="result1"
         in="result4">
        <feDistantLight
           id="feDistantLight3106"
           azimuth="235"
           elevation="40" />
      </feDiffuseLighting>
      <feComposite
         id="feComposite3108"
         in2="result1"
         operator="in"
         in="result3"
         result="result2" />
      <feComposite
         id="feComposite3110"
         in2="result1"
         result="result5"
         operator="arithmetic"
         k1="1.7" />
      <feBlend
         id="feBlend3112"
         in2="result3"
         in="result5"
         mode="normal" />
    </filter>
    <radialGradient
       cx="943.93427"
       cy="580.80634"
       r="960"
       fx="943.93427"
       fy="580.80634"
       id="radialGradient3524-788"
       xlink:href="#linearGradient3755-8-504"
       gradientUnits="userSpaceOnUse"
       gradientTransform="matrix(0.41496355,0,0,0.35065085,-78.364969,36.339742)" />
    <linearGradient
       id="linearGradient3755-8-504">
      <stop
         id="stop4146"
         style="stop-color:#ffffff;stop-opacity:1"
         offset="0" />
      <stop
         id="stop4148"
         style="stop-color:#000000;stop-opacity:1"
         offset="1" />
    </linearGradient>
    <linearGradient
       id="linearGradient5996-780-408-8">
      <stop
         style="stop-color:#000000;stop-opacity:0.85964912;"
         offset="0"
         id="stop4140-3" />
      <stop
         style="stop-color:#000000;stop-opacity:1;"
         offset="1"
         id="stop4142-6" />
    </linearGradient>
    <radialGradient
       r="320"
       fy="110.43146"
       fx="137.91573"
       cy="110.43146"
       cx="137.91573"
       gradientTransform="matrix(1.5759097,0.61638613,-0.44413715,1.1355222,-32.290089,-75.183628)"
       gradientUnits="userSpaceOnUse"
       id="radialGradient4822"
       xlink:href="#linearGradient5996-780-408-8"
       inkscape:collect="always" />
  </defs>
  <metadata
     id="metadata3028">
    <rdf:RDF>
      <cc:Work
         rdf:about="">
        <dc:format>image/svg+xml</dc:format>
        <dc:type
           rdf:resource="http://purl.org/dc/dcmitype/StillImage" />
        <dc:title />
        <cc:license
           rdf:resource="http://creativecommons.org/licenses/by-sa/3.0/" />
      </cc:Work>
      <cc:License
         rdf:about="http://creativecommons.org/licenses/by-sa/3.0/">
        <cc:permits
           rdf:resource="http://creativecommons.org/ns#Reproduction" />
        <cc:permits
           rdf:resource="http://creativecommons.org/ns#Distribution" />
        <cc:requires
           rdf:resource="http://creativecommons.org/ns#Notice" />
        <cc:requires
           rdf:resource="http://creativecommons.org/ns#Attribution" />
        <cc:permits
           rdf:resource="http://creativecommons.org/ns#DerivativeWorks" />
        <cc:requires
           rdf:resource="http://creativecommons.org/ns#ShareAlike" />
      </cc:License>
    </rdf:RDF>
  </metadata>
  <g
     inkscape:groupmode="layer"
     id="layer7"
     inkscape:label="white"
     style="display:inline">
    <rect
       style="fill:#ffffff;fill-opacity:1;stroke:none;filter:url(#filter3098)"
       id="rect6661"
       width="640"
       height="480"
       x="0"
       y="7.5101852e-06"
       transform="matrix(0.99134616,0,0,0.98845962,2.7692294,2.7696913)" />
    <rect
       style="fill:url(#radialGradient4822);fill-opacity:1;stroke:none;display:inline;stroke-opacity:1;stroke-width:4;stroke-miterlimit:4;stroke-dasharray:none;opacity:1"
       id="rect3799"
       width="640"
       height="480"
       x="0"
       y="0"
       inkscape:export-xdpi="90"
       inkscape:export-ydpi="90"
       inkscape:export-filename="/media/daten/shared/sourcen/Tanglu/Bartholomea/Tanglu_d-i_screen.png" />
    <g
       id="g3113"
       transform="translate(-10,-10)">
      <path
         style="font-size:100px;font-style:normal;font-variant:normal;font-weight:normal;font-stretch:normal;line-height:125%;letter-spacing:0px;word-spacing:0px;fill:#e6e6e6;fill-opacity:1;stroke:none;font-family:Cantarell;-inkscape-font-specification:Cantarell"
         id="path2998"
         d="m 217.32631,67.296106 0,7.3 23.1,0 0,62.099994 8.3,0 0,-62.099994 23.2,0 0,-7.3 -54.6,0"
         inkscape:connector-curvature="0" />
      <path
         style="font-size:100px;font-style:normal;font-variant:normal;font-weight:normal;font-stretch:normal;line-height:125%;letter-spacing:0px;word-spacing:0px;fill:#e6e6e6;fill-opacity:1;stroke:none;font-family:Cantarell;-inkscape-font-specification:Cantarell"
         id="path3000"
         d="m 296.26694,94.696101 c 5.99999,0 9.6,1.9 11,5.699999 0.6,1.6 0.9,4 0.9,7.5 l 0,0.4 c -7.4,0.2 -13.40001,0.9 -18.2,2.1 -6.3,1.7 -11.8,6.30001 -11.8,14.3 0,7.79999 7.10001,13.2 15.5,13.2 5.39999,0 10.3,-2 14.8,-5.7 l 1.8,4.5 6.2,0 0,-31.3 c 0,-7.899989 -1.70001,-11.499999 -6.8,-14.899999 -2.7,-1.799995 -6.90001,-2.699995 -12.5,-2.699995 -5.6,0 -11.00001,1 -16.2,2.999995 l 0,6.5 c 4.09999,-1.4 11.2,-2.6 15.3,-2.6 m -1.4,36.699999 c -1.2,0 -2.4,-0.2 -3.3,-0.6 -2.8,-1.3 -5.3,-3.7 -5.3,-7.1 0,-1.2 0.4,-2.3 1.1,-3.5 1.6,-2.6 4.3,-4.2 8,-5 1.99999,-0.4 6.2,-0.7 12.8,-0.9 l 0,11.5 c -3.5,3.4 -7.50001,5.6 -13.3,5.6"
         inkscape:connector-curvature="0" />
      <path
         style="font-size:100px;font-style:normal;font-variant:normal;font-weight:normal;font-stretch:normal;line-height:125%;letter-spacing:0px;word-spacing:0px;fill:#e6e6e6;fill-opacity:1;stroke:none;font-family:Cantarell;-inkscape-font-specification:Cantarell"
         id="path3002"
         d="m 361.96694,105.9961 0,30.7 8.3,0 0,-32.7 c 0,-10.199989 -5.40001,-16.499994 -15.8,-16.499994 -5.1,0 -11.00001,1.599995 -17.1,4.799995 l -1.6,-3.799995 -5.8,0 0,48.199994 8.3,0 0,-38.799999 c 4.89999,-2.3 9.5,-3.5 13.3,-3.5 7.79999,0 10.4,3.60001 10.4,11.599999"
         inkscape:connector-curvature="0" />
      <path
         style="font-size:100px;font-style:normal;font-variant:normal;font-weight:normal;font-stretch:normal;line-height:125%;letter-spacing:0px;word-spacing:0px;fill:#e6e6e6;fill-opacity:1;stroke:none;font-family:Cantarell;-inkscape-font-specification:Cantarell"
         id="path3004"
         d="m 416.37787,134.3961 0,1.4 c 0,3.1 0,5.5 -0.2,6.9 -1,8.69999 -6.60001,14 -16.7,14 -3.49999,0 -7.3,-1 -11.5,-2.5 l -2.2,5.8 c 4,1.8 10.00001,3.2 14.7,3.2 7.4,0 13.60001,-2.3 17.5,-6 4.8,-4.59999 6.7,-9.20001 6.7,-18.2 l 0,-50.499994 -5.9,0 -1,2.799995 -2.3,-1 c -3.99999,-1.799995 -7.8,-2.699995 -11.4,-2.699995 -2.79999,0 -5.5,0.5 -8.1,1.599995 -8.79999,3.7 -14.5,11.900009 -14.5,24.199999 0,6.29999 1.60001,11.20001 4.4,15.3 3.7,5.4 9.40001,8.9 17.7,8.9 4.8,0 8.70001,-1 12.8,-3.2 m -26.6,-22.1 c 0,-10.49999 5.00002,-18.099999 15.4,-18.099999 3.3,0 7.00001,0.8 11.2,2.5 l 0,31.699999 c -3.09999,1.7 -6.6,2.7 -10.8,2.7 -10.49999,0 -15.8,-8.40001 -15.8,-18.8"
         inkscape:connector-curvature="0" />
      <path
         style="font-size:100px;font-style:normal;font-variant:normal;font-weight:normal;font-stretch:normal;line-height:125%;letter-spacing:0px;word-spacing:0px;fill:#e6e6e6;fill-opacity:1;stroke:none;font-family:Cantarell;-inkscape-font-specification:Cantarell"
         id="path3006"
         d="m 453.54662,130.1961 c -6.19999,0 -6.4,-3.2 -6.4,-6.9 l 0,-53.699994 -8,0 0,56.599994 c 0.1,6.79999 4.10001,11.5 10.4,11.5 4.7,0 8.00001,-1.8 9.7,-2.4 l 0,-6.2 c -2.19999,0.7 -3.8,1.1 -5.7,1.1"
         inkscape:connector-curvature="0" />
      <path
         style="font-size:100px;font-style:normal;font-variant:normal;font-weight:normal;font-stretch:normal;line-height:125%;letter-spacing:0px;word-spacing:0px;fill:#e6e6e6;fill-opacity:1;stroke:none;font-family:Cantarell;-inkscape-font-specification:Cantarell"
         id="path3008"
         d="m 475.57162,119.3961 0,-30.699994 -8.3,0 0,32.699994 c 0,10.19999 5.50001,16.5 15.9,16.5 5.1,0 10.90001,-1.6 17,-4.8 l 1.6,3.6 5.8,0 0,-47.999994 -8.3,0 0,38.799994 c -4.89999,2.3 -9.4,3.5 -13.2,3.5 -7.79999,0 -10.5,-3.60001 -10.5,-11.6"
         inkscape:connector-curvature="0" />
    </g>
  </g>
  <g
     id="layer1"
     inkscape:label="background"
     inkscape:groupmode="layer"
     style="display:inline" />
  <g
     inkscape:groupmode="layer"
     id="layer3"
     inkscape:label="Debian"
     style="display:none">
    <g
       id="g3894">
      <g
         id="layer1-9"
         transform="translate(-15.762712,0)" />
      <flowRoot
         style="font-size:40px;font-style:normal;font-variant:normal;font-weight:normal;font-stretch:normal;line-height:125%;letter-spacing:0px;word-spacing:0px;fill:#000000;fill-opacity:1;stroke:none"
         xml:space="preserve"
         id="flowRoot5221"
         transform="translate(-15.762712,0)"><flowRegion
           id="flowRegion5223"><rect
             id="rect5225"
             y="-151.52542"
             x="231.86441"
             height="96.610168"
             width="168.81355" /></flowRegion><flowPara
           id="flowPara5227" /></flowRoot>      <g
         id="g5305">
        <rect
           style="fill:url(#radialGradient3524-788);fill-opacity:1;stroke:none"
           id="rect2985"
           y="0"
           x="0"
           height="480"
           width="640" />
      </g>
      <g
         style="fill:#ffffff;fill-opacity:1;overflow:visible"
         id="g3946"
         transform="matrix(2.5898448,0,0,2.5898448,10.307365,12.161683)">
        <g
           style="fill:#ffffff;fill-opacity:1"
           id="Layer_1">
          <g
             style="fill:#ffffff;fill-opacity:1"
             id="g3916"
             transform="matrix(0.98323459,0,0,0.98323459,-0.0013766,1.8181967)">
            <path
               inkscape:connector-curvature="0"
               style="fill:#ffffff;fill-opacity:1"
               id="path3918"
               d="m 51.986,57.297 c -1.797,0.025 0.34,0.926 2.686,1.287 0.648,-0.506 1.236,-1.018 1.76,-1.516 -1.461,0.358 -2.948,0.366 -4.446,0.229" />
            <path
               inkscape:connector-curvature="0"
               style="fill:#ffffff;fill-opacity:1"
               id="path3920"
               d="m 61.631,54.893 c 1.07,-1.477 1.85,-3.094 2.125,-4.766 -0.24,1.192 -0.887,2.221 -1.496,3.307 -3.359,2.115 -0.316,-1.256 -0.002,-2.537 -3.612,4.546 -0.496,2.726 -0.627,3.996" />
            <path
               inkscape:connector-curvature="0"
               style="fill:#ffffff;fill-opacity:1"
               id="path3922"
               d="m 65.191,45.629 c 0.217,-3.236 -0.637,-2.213 -0.924,-0.978 0.335,0.174 0.6,2.281 0.924,0.978" />
            <path
               inkscape:connector-curvature="0"
               style="fill:#ffffff;fill-opacity:1"
               id="path3924"
               d="m 45.172,1.399 c 0.959,0.172 2.072,0.304 1.916,0.533 1.049,-0.23 1.287,-0.442 -1.916,-0.533" />
            <path
               inkscape:connector-curvature="0"
               style="fill:#ffffff;fill-opacity:1"
               id="path3926"
               d="M 47.088,1.932 46.41,2.072 47.041,2.016 47.088,1.932" />
            <path
               inkscape:connector-curvature="0"
               style="fill:#ffffff;fill-opacity:1"
               id="path3928"
               d="m 76.992,46.856 c 0.107,2.906 -0.85,4.316 -1.713,6.812 l -1.553,0.776 c -1.271,2.468 0.123,1.567 -0.787,3.53 -1.984,1.764 -6.021,5.52 -7.313,5.863 -0.943,-0.021 0.639,-1.113 0.846,-1.541 -2.656,1.824 -2.131,2.738 -6.193,3.846 L 60.16,65.878 C 50.142,70.591 36.226,61.251 36.409,48.507 c -0.107,0.809 -0.304,0.607 -0.526,0.934 -0.517,-6.557 3.028,-13.143 9.007,-15.832 5.848,-2.895 12.704,-1.707 16.893,2.197 -2.301,-3.014 -6.881,-6.209 -12.309,-5.91 -5.317,0.084 -10.291,3.463 -11.951,7.131 -2.724,1.715 -3.04,6.611 -4.227,7.507 -1.597,11.737 3.004,16.808 10.787,22.773 1.225,0.826 0.345,0.951 0.511,1.58 -2.586,-1.211 -4.954,-3.039 -6.901,-5.277 1.033,1.512 2.148,2.982 3.589,4.137 -2.438,-0.826 -5.695,-5.908 -6.646,-6.115 4.203,7.525 17.052,13.197 23.78,10.383 -3.113,0.115 -7.068,0.064 -10.566,-1.229 -1.469,-0.756 -3.467,-2.322 -3.11,-2.615 9.182,3.43 18.667,2.598 26.612,-3.771 2.021,-1.574 4.229,-4.252 4.867,-4.289 -0.961,1.445 0.164,0.695 -0.574,1.971 2.014,-3.248 -0.875,-1.322 2.082,-5.609 l 1.092,1.504 c -0.406,-2.696 3.348,-5.97 2.967,-10.234 0.861,-1.304 0.961,1.403 0.047,4.403 1.268,-3.328 0.334,-3.863 0.66,-6.609 0.352,0.923 0.814,1.904 1.051,2.878 -0.826,-3.216 0.848,-5.416 1.262,-7.285 -0.408,-0.181 -1.275,1.422 -1.473,-2.377 0.029,-1.65 0.459,-0.865 0.625,-1.271 -0.324,-0.186 -1.174,-1.451 -1.691,-3.877 0.375,-0.57 1.002,1.478 1.512,1.562 -0.328,-1.929 -0.893,-3.4 -0.916,-4.88 -1.49,-3.114 -0.527,0.415 -1.736,-1.337 -1.586,-4.947 1.316,-1.148 1.512,-3.396 2.404,3.483 3.775,8.881 4.404,11.117 -0.48,-2.726 -1.256,-5.367 -2.203,-7.922 0.73,0.307 -1.176,-5.609 0.949,-1.691 C 83.519,18.706 76.074,10.902 69.225,7.24 70.063,8.007 71.121,8.97 70.741,9.121 67.335,7.093 67.934,6.935 67.446,6.078 64.671,4.949 64.489,6.169 62.651,6.08 57.421,3.306 56.413,3.601 51.6,1.863 l 0.219,1.023 c -3.465,-1.154 -4.037,0.438 -7.782,0.004 -0.228,-0.178 1.2,-0.644 2.375,-0.815 -3.35,0.442 -3.193,-0.66 -6.471,0.122 0.808,-0.567 1.662,-0.942 2.524,-1.424 -2.732,0.166 -6.522,1.59 -5.352,0.295 -4.456,1.988 -12.37,4.779 -16.811,8.943 l -0.14,-0.933 c -2.035,2.443 -8.874,7.296 -9.419,10.46 l -0.544,0.127 c -1.059,1.793 -1.744,3.825 -2.584,5.67 -1.385,2.36 -2.03,0.908 -1.833,1.278 -2.724,5.523 -4.077,10.164 -5.246,13.97 0.833,1.245 0.02,7.495 0.335,12.497 -1.368,24.704 17.338,48.69 37.785,54.228 2.997,1.072 7.454,1.031 11.245,1.141 -4.473,-1.279 -5.051,-0.678 -9.408,-2.197 -3.143,-1.48 -3.832,-3.17 -6.058,-5.102 l 0.881,1.557 c -4.366,-1.545 -2.539,-1.912 -6.091,-3.037 l 0.941,-1.229 C 28.751,98.334 26.418,96.056 25.78,94.795 l -1.548,0.061 c -1.86,-2.295 -2.851,-3.949 -2.779,-5.23 l -0.5,0.891 c -0.567,-0.973 -6.843,-8.607 -3.587,-6.83 -0.605,-0.553 -1.409,-0.9 -2.281,-2.484 l 0.663,-0.758 c -1.567,-2.016 -2.884,-4.6 -2.784,-5.461 0.836,1.129 1.416,1.34 1.99,1.533 -3.957,-9.818 -4.179,-0.541 -7.176,-9.994 L 8.412,66.472 C 7.926,65.74 7.631,64.945 7.24,64.165 l 0.276,-2.75 C 4.667,58.121 6.719,47.409 7.13,41.534 7.415,39.145 9.508,36.602 11.1,32.614 l -0.97,-0.167 c 1.854,-3.234 10.586,-12.988 14.63,-12.486 1.959,-2.461 -0.389,-0.009 -0.772,-0.629 4.303,-4.453 5.656,-3.146 8.56,-3.947 3.132,-1.859 -2.688,0.725 -1.203,-0.709 5.414,-1.383 3.837,-3.144 10.9,-3.846 0.745,0.424 -1.729,0.655 -2.35,1.205 4.511,-2.207 14.275,-1.705 20.617,1.225 7.359,3.439 15.627,13.605 15.953,23.17 l 0.371,0.1 c -0.188,3.802 0.582,8.199 -0.752,12.238 l 0.908,-1.912" />
            <path
               inkscape:connector-curvature="0"
               style="fill:#ffffff;fill-opacity:1"
               id="path3930"
               d="m 32.372,59.764 -0.252,1.26 c 1.181,1.604 2.118,3.342 3.626,4.596 -1.085,-2.118 -1.891,-2.993 -3.374,-5.856" />
            <path
               inkscape:connector-curvature="0"
               style="fill:#ffffff;fill-opacity:1"
               id="path3932"
               d="m 35.164,59.654 c -0.625,-0.691 -0.995,-1.523 -1.409,-2.352 0.396,1.457 1.207,2.709 1.962,3.982 l -0.553,-1.63" />
            <path
               inkscape:connector-curvature="0"
               style="fill:#ffffff;fill-opacity:1"
               id="path3934"
               d="m 84.568,48.916 -0.264,0.662 c -0.484,3.438 -1.529,6.84 -3.131,9.994 1.77,-3.328 2.915,-6.968 3.395,-10.656" />
            <path
               inkscape:connector-curvature="0"
               style="fill:#ffffff;fill-opacity:1"
               id="path3936"
               d="M 45.527,0.537 C 46.742,0.092 48.514,0.293 49.803,0 48.123,0.141 46.451,0.225 44.8,0.438 l 0.727,0.099" />
            <path
               inkscape:connector-curvature="0"
               style="fill:#ffffff;fill-opacity:1"
               id="path3938"
               d="m 2.872,23.219 c 0.28,2.592 -1.95,3.598 0.494,1.889 1.31,-2.951 -0.512,-0.815 -0.494,-1.889" />
            <path
               inkscape:connector-curvature="0"
               style="fill:#ffffff;fill-opacity:1"
               id="path3940"
               d="M 0,35.215 C 0.563,33.487 0.665,32.449 0.88,31.449 -0.676,33.438 0.164,33.862 0,35.215" />
          </g>
        </g>
      </g>
      <text
         sodipodi:linespacing="125%"
         style="font-size:14.74292755px;font-style:normal;font-variant:normal;font-weight:normal;font-stretch:normal;line-height:125%;letter-spacing:0px;word-spacing:0px;fill:#ffffff;fill-opacity:1;stroke:none"
         xml:space="preserve"
         id="text5281"
         transform="scale(1.0644644,0.9394396)"
         y="337.55661"
         x="515.56561"><tspan
           style="font-style:normal;font-variant:normal;font-weight:bold;font-stretch:normal;fill:#ffffff;fill-opacity:1;font-family:Liberation Sans;-inkscape-font-specification:Liberation Sans Bold"
           id="tspan5283"
           y="337.55661"
           x="515.56561">GNU/Linux</tspan></text>
      <g
         transform="matrix(1.3120474,0,0,1.3120474,-192.93184,-205.04504)"
         id="g3199">
        <path
           inkscape:connector-curvature="0"
           i:knockout="Off"
           d="m 532.17404,368.85139 c -0.045,0.047 -0.045,7.506 -0.138,9.453 -0.092,1.574 -0.232,4.957 -3.568,4.957 -3.429,0 -4.263,-3.939 -4.541,-5.652 -0.324,-1.9 -0.324,-3.477 -0.324,-4.17 0,-2.225 0.139,-8.436 5.375,-8.436 1.576,0 2.456,0.465 3.151,0.834 l 0.045,3.014 z m -13.437,5.469 c 0,13.066 6.951,13.066 7.97,13.066 2.873,0 4.727,-1.576 5.514,-4.309 l 0.093,4.123 c 0.881,-0.047 1.761,-0.139 3.197,-0.139 0.51,0 0.926,0 1.298,0.047 0.371,0 0.741,0.045 1.158,0.092 -0.741,-1.482 -1.297,-4.818 -1.297,-12.049 0,-7.043 0,-18.951 0.602,-22.566 -1.667,0.789 -3.105,1.299 -6.256,1.576 1.251,1.344 1.251,2.039 1.251,8.154 -0.879,-0.277 -1.992,-0.602 -3.892,-0.602 -8.294,10e-4 -9.638,7.23 -9.638,12.607"
           id="path33"
           style="fill:#ffffff" />
        <path
           inkscape:connector-curvature="0"
           i:knockout="Off"
           d="m 543.86704,371.95439 c 0.047,-3.846 0.835,-7.275 4.124,-7.275 3.615,0 3.891,3.984 3.799,7.275 h -7.923 z m 12.51,0.465 c 0,-5.422 -1.065,-10.752 -7.923,-10.752 -9.452,0 -9.452,10.475 -9.452,12.697 0,9.406 4.216,13.113 11.306,13.113 3.149,0 4.68,-0.461 5.514,-0.695 -0.046,-1.668 0.185,-2.734 0.465,-4.17 -0.975,0.604 -2.226,1.391 -5.006,1.391 -7.229,0 -7.322,-6.582 -7.322,-8.852 h 12.328 l 0.09,-2.732"
           id="path35"
           style="fill:#ffffff" />
        <path
           inkscape:connector-curvature="0"
           i:knockout="Off"
           d="m 571.45204,374.41139 c 0,4.309 -0.787,10.102 -6.162,10.102 -0.742,0 -1.668,-0.141 -2.27,-0.279 -0.093,-1.668 -0.093,-4.541 -0.093,-7.877 0,-3.986 0.416,-6.068 0.742,-7.09 0.972,-3.289 3.15,-3.334 3.566,-3.334 3.522,0 4.217,4.865 4.217,8.478 z m -13.298,5.051 c 0,3.43 0,5.375 -0.556,6.857 1.9,0.742 4.262,1.158 7.09,1.158 1.807,0 7.043,0 9.869,-5.791 1.344,-2.688 1.807,-6.303 1.807,-9.037 0,-1.668 -0.186,-5.328 -1.529,-7.646 -1.296,-2.176 -3.382,-3.289 -5.605,-3.289 -4.449,0 -5.746,3.707 -6.44,5.607 0,-2.363 0.045,-10.611 0.415,-14.828 -3.011,1.391 -4.866,1.621 -6.857,1.807 1.807,0.74 1.807,3.801 1.807,13.764 v 11.398"
           id="path37"
           style="fill:#ffffff" />
        <path
           inkscape:connector-curvature="0"
           i:knockout="Off"
           d="m 585.27204,387.20039 c -0.928,-0.139 -1.578,-0.232 -2.922,-0.232 -1.48,0 -2.502,0.094 -3.566,0.232 0.463,-0.881 0.648,-1.299 0.787,-4.309 0.186,-4.125 0.232,-15.154 -0.092,-17.471 -0.232,-1.762 -0.648,-2.039 -1.297,-2.502 3.799,-0.371 4.865,-0.648 6.625,-1.482 -0.369,2.037 -0.418,3.059 -0.418,6.162 -0.091,15.989 -0.138,17.702 0.883,19.602"
           id="path39"
           style="fill:#ffffff" />
        <path
           inkscape:connector-curvature="0"
           i:knockout="Off"
           d="m 600.11004,374.08539 c -0.092,2.92 -0.139,4.959 -0.928,6.58 -0.973,2.086 -2.594,2.688 -3.799,2.688 -2.783,0 -3.383,-2.316 -3.383,-4.586 0,-4.355 3.893,-4.682 5.652,-4.682 h 2.458 z m -12.744,5.701 c 0,2.92 0.881,5.838 3.477,7.09 1.158,0.51 2.316,0.51 2.688,0.51 4.264,0 5.699,-3.152 6.58,-5.098 -0.047,2.039 0,3.289 0.139,4.912 0.834,-0.047 1.668,-0.139 3.059,-0.139 0.787,0 1.529,0.092 2.316,0.139 -0.51,-0.787 -0.787,-1.252 -0.928,-3.059 -0.092,-1.76 -0.092,-3.521 -0.092,-5.977 l 0.047,-9.453 c 0,-3.523 -0.928,-6.998 -7.879,-6.998 -4.586,0 -7.273,1.391 -8.617,2.086 0.557,1.02 1.02,1.898 1.436,3.893 1.809,-1.576 4.172,-2.41 6.58,-2.41 3.848,0 3.848,2.549 3.848,6.162 -0.881,-0.045 -1.623,-0.137 -2.875,-0.137 -5.887,10e-4 -9.779,2.268 -9.779,8.479"
           id="path41"
           style="fill:#ffffff" />
        <path
           inkscape:connector-curvature="0"
           i:knockout="Off"
           d="m 626.80004,382.61339 c 0.047,1.576 0.047,3.244 0.695,4.588 -1.021,-0.092 -1.623,-0.232 -3.521,-0.232 -1.113,0 -1.715,0.094 -2.596,0.232 0.184,-0.602 0.279,-0.834 0.371,-1.623 0.139,-1.064 0.232,-4.633 0.232,-5.885 v -5.004 c 0,-2.178 0,-5.33 -0.141,-6.441 -0.092,-0.787 -0.322,-2.918 -3.012,-2.918 -2.641,0 -3.521,1.945 -3.846,3.521 -0.369,1.621 -0.369,3.383 -0.369,10.24 0.045,5.932 0.045,6.486 0.508,8.109 -0.787,-0.092 -1.76,-0.184 -3.15,-0.184 -1.113,0 -1.854,0.045 -2.779,0.184 0.324,-0.742 0.51,-1.113 0.602,-3.707 0.094,-2.549 0.279,-15.061 -0.141,-18.025 -0.23,-1.809 -0.695,-2.225 -1.203,-2.688 3.754,-0.186 4.957,-0.789 6.117,-1.389 v 4.91 c 0.555,-1.438 1.713,-4.635 6.348,-4.635 5.793,0 5.838,4.217 5.885,6.996 v 13.951"
           id="path43"
           style="fill:#ffffff" />
        <path
           style="fill:#000000"
           inkscape:connector-curvature="0"
           i:knockout="Off"
           d="m 585.66304,354.87839 -3.838,3.836 -3.836,-3.836 3.836,-3.836 3.838,3.836"
           id="path45" />
      </g>
    </g>
  </g>
  <g
     inkscape:groupmode="layer"
     id="layer2"
     inkscape:label="logo"
     style="opacity:0.76981135;display:inline">
    <g
       id="g3897"
       transform="matrix(0.68998171,0,0,0.68998171,9.4322244,8.4055109)">
      <path
         id="path4552"
         d="m 134.79246,9.5097625 c -10.8486,0 -21.34023,1.6673425 -31.25272,4.7027355 1.19542,-0.04763 2.43013,-0.06131 3.7845,-0.06131 8.65261,0 14.33768,-0.230868 18.80048,-0.244292 7.43961,-0.02199 11.44117,0.619035 19.77712,4.397347 13.3393,6.045396 23.40559,3.81056 32.77871,9.1001 9.37315,5.28954 15.49697,17.716965 22.70709,25.651262 7.21009,7.934312 13.33905,12.469949 11.53666,28.338541 -1.80293,15.868853 -4.28798,14.026608 -1.40397,26.872774 2.88432,12.84614 -3.24709,26.04164 -3.96761,31.33117 -0.30764,2.25537 -2.5725,7.2002 -5.73781,12.58134 -0.57549,5.3389 -1.9921,9.64122 -5.4326,14.23034 -7.3532,9.80856 -14.70295,18.94725 -26.73574,24.55193 -12.03277,5.60493 -28.06788,10.50481 -39.43215,10.50481 -11.36427,0 -17.37968,-5.62935 -27.40718,-9.83299 -10.027239,-4.20363 -16.693594,-14.68596 -23.378495,-25.89556 -1.161479,-1.94754 -2.332246,-3.41871 -3.418267,-4.64166 2.540743,11.22817 5.595216,24.82407 12.330178,29.31574 7.931113,5.28954 7.594406,15.10517 24.538274,18.50555 16.94387,3.40039 10.47113,11.34006 31.74105,7.93967 21.26993,-3.40037 45.37237,-7.16964 50.41944,-12.45917 5.0473,-5.28954 15.90665,-10.96458 22.03562,-20.03242 6.12845,-9.06786 19.06245,-17.40843 20.14336,-29.49896 1.08188,-12.09054 6.85972,-21.51897 8.30151,-30.96474 0.14259,-0.93957 0.23243,-1.89502 0.36622,-2.8705 C 243.37029,58.989114 194.60994,9.5095294 134.79246,9.5095294 z"
         style="color:#000000;fill:#ffffff;fill-opacity:1;fill-rule:evenodd;stroke:none;marker:none;visibility:visible;display:inline;overflow:visible;enable-background:accumulate"
         inkscape:connector-curvature="0"
         inkscape:export-filename="/home/konj/Tanglu LOGO/path3935.png"
         inkscape:export-xdpi="90"
         inkscape:export-ydpi="90" />
      <path
         id="path4554"
         d="m 132.47333,34.489266 c -2.04304,0.08385 -4.51687,0.376819 -7.50796,0.855049 -21.26993,3.400364 -45.434155,7.16964 -50.480489,12.459176 -5.047546,5.289552 -15.846349,10.964577 -21.974572,20.032418 -6.128704,9.067856 -19.12277,17.347357 -20.20441,29.43789 -1.081392,12.090291 -6.859474,21.518951 -8.301506,30.964751 -0.12302,0.79934 -0.191426,1.61747 -0.305204,2.44297 0.09195,2.48375 0.311541,4.94855 0.549363,7.39001 l -15.1990666,12.76456 -0.3662472,0.30537 c -0.99009,0.91661 -1.7008387,1.97026 -2.0753804,3.05373 -0.3952936,1.14721 -0.4460857,2.34597 -0.1830227,3.54232 0.2627214,1.19632 0.8179403,2.31616 1.7091332,3.42016 0.8909598,1.10422 2.1124887,2.1222 3.6013827,2.99264 0.371373,0.21718 0.709055,0.42166 1.098742,0.61075 l 21.669274,11.60414 c 1.067894,2.33698 2.209148,4.65389 3.418266,6.90141 l -7.935274,18.38341 -0.0612,0.18313 c -0.259786,0.63518 -0.381377,1.29429 -0.366232,1.83224 0.01755,0.56872 0.137154,1.05365 0.427275,1.46577 0.290323,0.41237 0.690976,0.70921 1.220814,0.91611 0.530087,0.2067 1.21763,0.29171 1.953293,0.24431 0.183613,-0.0124 0.36283,-0.0331 0.549364,-0.0612 l 19.288799,-1.22149 c 4.960236,5.64712 10.428657,10.79796 16.358853,15.32967 l 0.366231,10.99341 0,0.18312 c 0.02889,0.59289 0.128146,1.16774 0.305204,1.64901 0.187713,0.5096 0.414352,0.93761 0.732494,1.28257 0.318127,0.34471 0.688304,0.5934 1.098727,0.73289 0.410422,0.13909 0.877772,0.16787 1.342886,0.0612 0.116496,-0.0268 0.253448,-0.0805 0.366247,-0.12215 l 14.405563,-3.29802 c 14.222303,6.92488 30.097363,10.81018 46.818043,10.81018 10.85519,0 21.33414,-1.6639 31.25271,-4.70273 -1.19614,0.047 -2.42941,0.0612 -3.7845,0.0612 -23.07206,0 -25.2383,1.89209 -38.57758,-4.15306 -13.33883,-6.04516 -23.4056,-3.74948 -32.778743,-9.03902 -9.373378,-5.28953 -15.558233,-17.77804 -22.768096,-25.71233 -7.210842,-7.93431 -13.339064,-12.46969 -11.536657,-28.33854 1.802641,-15.86861 4.349021,-13.96553 1.464974,-26.81168 -2.884048,-12.84616 3.245883,-26.10274 3.967629,-31.39228 0.720534,-5.28953 11.929994,-25.286013 21.303136,-31.331173 9.373146,-6.045392 19.054397,-12.890873 27.346127,-14.780025 1.46889,-0.334684 3.00443,-0.567992 4.57804,-0.793964 11.73225,-3.682057 28.79743,-9.065665 34.3658,-6.412823 28.74518,13.311532 34.09599,21.720028 42.11792,37.13327 2.00556,3.853295 3.69638,6.459475 5.12741,8.550425 -0.52691,-2.40949 -1.2064,-4.967066 -1.95331,-8.000751 C 192.03354,85.19467 189.11386,67.079023 181.1835,61.78947 173.2519,56.499686 173.65011,46.62321 156.70625,43.222842 142.93943,40.459838 144.65589,34.71274 134.36543,34.489195 c -0.59368,-0.01352 -1.21123,-0.02793 -1.89225,0 z"
         style="color:#000000;fill:#ffffff;fill-opacity:1;fill-rule:evenodd;stroke:none;marker:none;visibility:visible;display:inline;overflow:visible;enable-background:accumulate"
         inkscape:connector-curvature="0" />
      <path
         inkscape:connector-curvature="0"
         id="path4570"
         d="m 134.30414,75.164805 c -8.42579,0.338103 -21.75092,4.710788 -26.9799,7.756455 -6.43586,3.748263 -12.941317,11.987455 -21.42521,24.79622 -8.48414,12.80853 -2.794671,12.48631 -2.5637,22.96399 0.230972,10.47745 0.767645,20.4878 5.981967,27.60566 5.214318,7.1176 7.145154,13.5038 14.893873,18.32233 7.74849,4.81828 20.57969,8.24724 30.94753,9.5276 10.36785,1.28013 18.9123,-1.80462 27.71238,-5.37455 8.79983,-3.57017 10.68478,-10.12735 18.98359,-23.69688 8.29858,-13.56977 4.34218,-12.1074 4.82221,-26.01771 0.48027,-13.91056 0.11649,-21.91595 -14.34452,-43.179622 -3.6617,-5.506482 -26.40807,-9.963449 -33.14498,-12.214902 -1.26305,-0.422136 -2.93874,-0.566765 -4.88324,-0.488591 z m -2.2585,26.139865 c 4.76897,-0.24821 7.75947,0.87409 11.78082,2.62621 6.43415,2.80306 6.45442,0.56163 11.29248,7.32892 4.83807,6.76705 7.57292,8.92004 7.63005,14.1082 0.0569,5.18791 -0.0586,10.16401 -2.56368,15.2686 -2.50511,5.10437 -6.44978,11.06377 -10.13272,14.16929 -3.68294,3.10526 -7.05824,2.95844 -11.35353,4.33628 -4.29555,1.37759 -9.0843,-0.20961 -14.03932,-2.01546 -4.95526,-1.80633 -5.86868,1.16481 -10.31584,-5.55778 -4.44692,-6.72283 -7.05506,-11.57091 -7.63007,-15.57397 -0.57499,-4.00356 0.0871,-14.65592 2.38059,-17.7116 2.29341,-3.05591 8.58742,-13.96699 11.84186,-14.8411 4.73527,-1.32799 8.24802,-1.98881 11.10936,-2.13759 z"
         style="fill:#8a8a8a;fill-opacity:1;stroke:none;display:inline"
         inkscape:export-xdpi="90"
         inkscape:export-ydpi="90" />
    </g>
  </g>
  <g
     inkscape:groupmode="layer"
     id="layer4"
     inkscape:label="Font1"
     style="display:inline" />
  <g
     inkscape:groupmode="layer"
     id="layer5"
     inkscape:label="Font2"
     style="display:inline" />
  <g
     inkscape:groupmode="layer"
     id="layer6"
     inkscape:label="idot"
     style="display:inline" />
</svg>
